<svg xmlns="http://www.w3.org/2000/svg" viewBox="0 0 900 1228" width="900" height="1228"><style>
.relief rect{stroke:none}
.r0{fill:#e9e2d2}.r1{fill:#ddd6c2}.r2{fill:#d0c8b0}.r3{fill:#c2b99c}
.r4{fill:#b3a988}.r5{fill:#a39873}.r6{fill:#93875f}.r7{fill:#847849}
.lake{fill:#9fc9e0;stroke:#6aa9cd;stroke-width:.4;opacity:.95}
.river{fill:none;stroke:#6fb0d4;stroke-width:1.1;stroke-linecap:round;opacity:.9}
.river.big{stroke-width:2.6;stroke:#4f9ac4}
.bound path{fill:none;stroke:#6b5b3e;stroke-width:1.6;stroke-dasharray:8 6;opacity:.6}
@media (prefers-color-scheme:dark){
 .lake{fill:#1f4560;stroke:#2f6285}
 .river{stroke:#2f6285}.river.big{stroke:#3f7ea6}
 .bound path{stroke:#6f6248;opacity:.7}}
</style><g class="water"><path class="lake" d="M835 621L834 627L836 635L834 638L834 647L831 650L833 657L830 669L827 671L819 686L818 687L818 695L818 687L819 686L820 682L824 677L827 671L830 669L833 657L831 650L834 647L834 638L836 635L834 627L835 621Z"/><path class="lake" d="M-118 1402L-114 1406L-114 1414L-112 1414L-112 1407L-117 1400L-122 1389L-125 1385L-127 1378L-125 1367L-116 1352L-117 1346L-116 1342L-101 1325L-88 1323L-83 1319L-80 1315L-82 1315L-86 1320L-98 1323L-104 1325L-108 1330L-109 1332L-118 1341L-119 1355L-123 1360L-129 1376L-127 1386L-118 1402Z"/><path class="lake" d="M836 256L830 256L829 258L836 264L835 267L839 270L839 272L837 276L841 280L838 287L842 288L840 293L838 294L842 297L837 299L841 304L841 308L843 310L840 312L842 315L841 325L839 331L841 333L843 331L841 332L839 331L841 325L842 315L840 312L843 310L841 308L841 304L838 299L842 297L838 295L840 293L842 288L839 287L841 279L837 275L839 272L839 270L835 267L836 264L830 258L830 256L833 257L836 256Z"/><path class="lake" d="M816 453L815 451L818 449L817 448L814 445L811 439L809 434L809 427L807 421L804 419L805 410L810 406L807 401L808 399L806 394L806 387L803 382L804 376L802 371L804 376L803 382L806 387L805 392L808 399L807 401L810 406L805 410L803 419L807 421L809 427L809 434L811 439L814 445L817 448L818 449L815 451L816 453Z"/><path class="lake" d="M813 547L816 546L817 543L816 537L819 534L818 531L821 516L819 507L821 497L818 488L818 474L819 470L819 461L822 457L820 454L816 453L820 454L822 457L819 461L819 470L818 474L818 488L821 497L819 507L821 516L818 530L819 534L816 537L817 543L816 546L813 547Z"/><path class="lake" d="M786 796L789 805L789 810L785 811L783 816L779 818L780 820L777 826L777 833L775 837L771 839L771 843L763 845L771 843L771 839L775 837L777 833L777 826L781 820L779 818L783 816L785 811L789 810L789 805L786 796Z"/><path class="lake" d="M814 1414L814 1417L815 1415L813 1415L812 1406L816 1393L813 1393L813 1390L810 1392L808 1389L813 1387L814 1385L811 1386L805 1377L805 1376L807 1375L806 1371L801 1367L802 1362L796 1357L796 1351L799 1350L800 1344L795 1343L794 1340L797 1335L795 1332L793 1332L795 1328L792 1328L794 1323L792 1328L795 1328L793 1332L797 1334L794 1340L799 1345L799 1349L795 1351L796 1358L801 1362L800 1366L807 1374L805 1378L811 1386L814 1385L808 1390L810 1392L813 1391L814 1394L815 1393L812 1406L813 1415L814 1414Z"/><path class="lake" d="M688 1388L689 1386L688 1385L689 1382L691 1379L690 1378L691 1372L691 1375L694 1376L699 1370L698 1369L701 1370L703 1368L702 1370L703 1372L700 1371L699 1373L701 1374L699 1374L700 1375L704 1376L699 1378L702 1379L702 1381L704 1380L705 1381L704 1382L706 1383L704 1386L703 1385L704 1383L703 1382L700 1384L696 1381L695 1383L698 1384L695 1385L699 1387L699 1388L695 1387L692 1387L691 1389L696 1392L693 1391L690 1392L688 1388Z"/><path class="lake" d="M-24 1545L-37 1534L-40 1524L-50 1513L-52 1512L-57 1502L-59 1500L-60 1498L-58 1495L-61 1491L-60 1483L-55 1483L-51 1479L-59 1471L-64 1463L-71 1464L-73 1463L-73 1458L-76 1452L-73 1464L-70 1465L-64 1463L-57 1475L-52 1478L-55 1482L-61 1483L-61 1492L-60 1495L-61 1500L-56 1504L-52 1513L-49 1514L-39 1526L-37 1535L-31 1538L-29 1542L-24 1545Z"/><path class="river big" d="M381 801L382 805L378 806L381 811L378 814L381 820L378 828L380 829L381 830L379 833L380 835L378 837L386 841L385 844L382 845L379 859L379 866L381 868L380 875L383 880L380 885L386 890L385 893L386 894L389 895L391 893L395 895L392 898L395 901L393 902L392 907L388 908"><title>ลำน้ำแม่แจ่ม</title></path><path class="river big" d="M388 908L397 918L397 919L395 919L395 923L400 926L398 927L397 931L400 936L396 939L394 937L393 942L391 942L391 945L389 945L383 950L376 947L367 952L363 951L358 948L353 951L349 949L346 951L339 957L338 964L331 967L329 967L324 971L322 979L322 988L313 1002L314 1004L312 1007L315 1013L320 1017L323 1016L327 1021L333 1021L334 1024L342 1026L346 1030L349 1038L345 1042L345 1046L347 1051L352 1055L353 1063L358 1066L359 1065L359 1063L365 1063L367 1065L369 1060L371 1059L374 1060L375 1056L378 1055L379 1057L383 1057L386 1063L388 1063L391 1060L399 1065L403 1064L406 1070L412 1072L411 1075L414 1076L415 1081L417 1080L426 1083L427 1088L433 1089L433 1092L437 1093L441 1099L443 1100L446 1100L449 1104L452 1102L455 1103L461 1107L465 1107L472 1108L484 1104L488 1105L493 1102L504 1101L513 1097L530 1099L534 1102L538 1103L549 1112L556 1115L556 1119L560 1117L563 1120L567 1121L568 1127L571 1127L573 1122L582 1128L586 1128L584 1133L589 1134"><title>ลำน้ำแม่แจ่ม</title></path><path class="river big" d="M366 631L364 632L365 636L366 637L365 638L366 642L364 641L363 642L365 643L366 645L369 642L370 645L372 645L372 649L375 649L376 653L380 650L383 652L384 651L387 653L390 649L393 652L392 654L394 654L394 658L396 657L398 658L400 662L399 666L401 669L393 675L392 673L386 672L385 669L384 673L380 676L382 680L380 685L381 687L379 687L378 690L381 689L380 692L386 696L387 700L391 702L390 703L391 705L389 703L388 704L389 706L387 709L389 709L390 711L389 718L391 720L391 717L392 717L393 720L392 723L395 726L396 724L398 726L399 724L401 730L405 731L399 734L399 738L401 741L396 744L398 745L397 747L398 750L398 754L396 758L396 760L401 761L400 765L398 767L396 770L399 771L394 776L395 780L392 778L389 779L386 777L387 779L385 781L386 783L387 781L392 781L391 784L392 788L384 793L386 795L386 797L385 798L381 796L382 799L381 801"><title>ลำน้ำแม่แจ่ม</title></path><path class="river" d="M998 247L996 251L998 254L996 255L997 256L996 258L997 259L995 261L1000 267L1001 271L998 278L999 279L996 283L997 284L998 283L1000 283L1000 288L994 293L996 298L995 303L997 303L996 307L997 311L996 317L995 318L995 322L994 323L995 325L992 327L992 329L988 330"><title>ลำน้ำแม่งัด</title></path><path class="river" d="M1000 218L1001 220L999 222L1000 230L1002 235L1000 235L1000 239L999 241L1000 245L998 247"><title>ลำน้ำแม่งัด</title></path><path class="river big" d="M427 320L425 320L426 325L424 326L421 323L417 317L414 320L410 321L407 319L404 322L398 320L394 324L387 320L381 321L378 317L374 321L372 317L370 317L368 320L362 319L356 315L353 318L346 319L344 315L338 313L336 310L332 307L320 306L312 301L307 300L303 298L303 295L299 293L296 286L288 285L286 277L284 274L281 275L277 270L278 256L267 245L264 236L265 233L263 231L263 229L261 228L261 226L255 222L251 221L242 214L239 214L238 212L237 212L230 202L227 202L225 200L222 200L219 197L215 197L214 195L206 192L205 190L199 188L195 188L191 193L182 196L179 203L172 204L169 206L165 205L161 206L159 204L151 204L146 208"><title>แม่น้ำปาย</title></path><path class="river big" d="M73 288L74 290L67 294L66 297L71 300L72 305L74 307L73 309L58 311L53 315L50 311L44 314L40 309L37 310L32 309L21 316L16 317L12 319L6 320L-1 318"><title>แม่น้ำปาย</title></path><path class="river big" d="M146 208L146 206L143 206L140 210L128 214L122 220L118 221L114 213"><title>แม่น้ำปาย</title></path><path class="river big" d="M114 213L110 208L108 209L108 213L105 213L105 208L101 204L100 205L100 207L98 210L96 209L96 207L92 205L83 218L86 221L88 227L85 230L83 234L81 232L76 233L75 237L73 237L72 242L67 241L66 251L69 251L69 252L67 253L67 255L68 256L71 254L73 256L68 262L68 266L63 268L63 270L65 273L72 272L74 274L76 281L73 288"><title>แม่น้ำปาย</title></path><path class="river big" d="M459 130L454 131L455 132L452 133L452 136L454 136L453 137L451 136L451 137L450 136L449 137L453 139L452 140L455 147L454 150L456 149L456 152L455 154L456 157L454 157L454 159L456 160L455 166L453 168L451 167L452 170L449 170L449 173L452 174L450 176L453 178L447 181L448 186L446 189L448 193L446 194L444 199L444 200L446 202L444 207L449 213L447 216L446 220L447 221L444 226L446 230L452 231L450 233L452 235L451 242L452 246L455 248L458 247L459 249L458 252L462 255L464 255L465 257L459 266L461 269L460 271L456 273L454 272L455 268L452 268L447 269L448 271L445 272L447 276L446 278L447 281L446 281L445 279L443 281"><title>แม่น้ำปาย</title></path><path class="river big" d="M443 281L445 283L444 286L447 286L446 284L447 283L450 284L450 287L451 291L451 292"><title>แม่น้ำปาย</title></path><path class="river big" d="M451 292L449 293L452 294L454 299L456 300L455 301"><title>แม่น้ำปาย</title></path><path class="river big" d="M455 301L454 301L451 308L446 312L446 316L442 319L440 319L437 316L433 321L427 320"><title>แม่น้ำปาย</title></path><path class="river" d="M-190 1021L-186 1021"><title>Salween River</title></path><path class="river" d="M-194 1021L-190 1021"><title>Salween River</title></path><path class="river" d="M-186 1021L-182 1024"><title>Salween River</title></path><path class="river" d="M-201 1016L-194 1021"><title>Salween River</title></path><path class="river" d="M-182 1024L-178 1025L-173 1030L-168 1032"><title>Salween River</title></path><path class="river" d="M-224 1037L-218 1019L-212 1015L-206 1018L-201 1016"><title>Salween River</title></path><path class="river" d="M-168 1032L-162 1038L-153 1055L-152 1061L-157 1068L-173 1085L-175 1090L-175 1095L-171 1106L-161 1120L-150 1130"><title>Salween River</title></path><path class="river" d="M-150 1130L-143 1142L-138 1147L-132 1148L-125 1155L-124 1160L-125 1166L-124 1176L-124 1192L-122 1196"><title>Salween River</title></path><path class="river" d="M-122 1196L-115 1210L-114 1215L-115 1219L-122 1223L-121 1232L-117 1236L-113 1231L-109 1230L-101 1238L-101 1245L-96 1256L-90 1264L-92 1272L-81 1292L-79 1303L-81 1316L-83 1319L-89 1322L-101 1325L-117 1341L-118 1346L-118 1353L-125 1366L-128 1376L-126 1386L-113 1407L-112 1412L-114 1413L-116 1413L-125 1404L-127 1404L-130 1408L-132 1425L-129 1431L-129 1437L-126 1445L-121 1450L-116 1460L-116 1465L-118 1470L-119 1480L-112 1498L-109 1509L-103 1521"><title>Salween River</title></path><path class="river" d="M260 1616L262 1619L260 1619L260 1620L259 1618L258 1619L250 1626L249 1624L247 1624L247 1625L245 1627L241 1627L237 1625L235 1627L234 1625L231 1625L227 1626L227 1623L225 1626L223 1625L222 1627L220 1624L219 1624L217 1623L216 1624L214 1624L213 1626L202 1616L200 1616L201 1612L197 1612L195 1607L199 1603L195 1602L195 1599L193 1597L195 1596L194 1595L196 1594L194 1591L196 1588L190 1586L192 1580L188 1578L186 1572L183 1569L180 1568L171 1561L171 1560L166 1558L164 1560L162 1559L163 1557L162 1553L160 1552L159 1548L157 1546L155 1545L151 1547L152 1543L150 1542L148 1538L146 1538L149 1535L146 1530L146 1527L145 1522L139 1517L139 1516"><title>แม่เงา</title></path><path class="river" d="M139 1516L139 1510L135 1511L134 1511L134 1506L137 1503L133 1500L131 1494L127 1493L127 1487L132 1490L133 1489L129 1483L126 1481L127 1475L124 1474L122 1469L124 1468L124 1465L121 1460L114 1459L114 1457L115 1457L116 1455L114 1451L110 1453L108 1451L113 1450L111 1448L109 1443L106 1441L107 1438L105 1435L110 1432L101 1429L102 1423L98 1422L99 1416L102 1415L103 1412L103 1409L98 1403L95 1403L94 1402L94 1399L92 1396L96 1390L96 1389L93 1387L90 1389L89 1388"><title>แม่เงา</title></path><path class="river" d="M263 1612L261 1613L260 1616"><title>แม่เงา</title></path><path class="river" d="M265 1609L263 1612"><title>แม่เงา</title></path><path class="river" d="M905 695L915 706"><title>แม่น้ำกวง</title></path><path class="river" d="M903 651L905 662L904 667L909 677L907 679L910 680L904 685L907 688L904 692"><title>แม่น้ำกวง</title></path><path class="river" d="M915 706L911 711L912 711L916 718L921 734L920 736L922 745L921 747L918 746L919 751L917 757L916 758L913 757L910 763L911 767L909 769L910 771L909 772L909 775L906 777L906 779L902 784L901 790L899 791L900 794L898 798L897 799L895 803L888 804L884 814L878 822L874 824L870 825L869 831L870 836L865 836L863 841L858 843L857 846L854 848L852 845L850 845L848 850L844 851L842 854L840 855L830 856L823 858L819 858L817 856L813 855"><title>แม่น้ำกวง</title></path><path class="river" d="M904 692L906 693L905 695"><title>แม่น้ำกวง</title></path><path class="river big" d="M840 752L839 759L837 760L835 763L835 765L830 769L827 775L827 782L829 790L828 794L836 799L836 803L839 808L830 816L829 819L827 821L827 826L823 829L823 833L819 839L816 839L814 844L811 846L812 850L811 853L813 855L809 857L804 861L798 860L792 867L782 871L771 881L770 880L766 876"><title>แม่น้ำปิง</title></path><path class="river big" d="M837 498L835 500L833 504L832 510L837 515L835 518L835 519L842 523L844 534L843 538L845 543L842 548L837 550L838 553L842 554L838 558L840 563L840 568L844 572L841 577L843 579L841 582L845 590L842 597L846 602L843 606L848 607L847 612L851 613L851 618L854 621L856 626L860 630L858 635L862 640L864 646L864 652L861 657L865 662L867 670L863 676L865 682L860 684L858 688L853 691L853 693L847 700L850 703L850 708L852 711L852 718L849 724L852 732L851 735L852 739"><title>แม่น้ำปิง</title></path><path class="river big" d="M673 1526L667 1532L661 1533L655 1538L638 1545L628 1544L626 1546L626 1550L631 1553L630 1555L626 1559L625 1562L627 1564L631 1572L635 1571L636 1573L629 1577L631 1586L626 1594L625 1603L634 1609L635 1620L640 1632L642 1644L640 1647L640 1653"><title>แม่น้ำปิง</title></path><path class="river big" d="M603 1300L607 1303L613 1304L613 1312L608 1314L601 1314L593 1320L588 1320L583 1327L584 1333L591 1347L598 1350L597 1353L588 1359L584 1367L584 1371L589 1376L599 1376L602 1384"><title>แม่น้ำปิง</title></path><path class="river big" d="M657 932L655 933L654 939L652 941L650 941L647 935L644 935L640 941L638 947L633 952L633 956L636 959L639 959L644 955L645 956L645 957L637 970L631 975L628 986L624 993"><title>แม่น้ำปิง</title></path><path class="river big" d="M581 1112L581 1114L590 1121L592 1127L589 1133L590 1136L590 1137L581 1147L582 1156L579 1162L578 1166L581 1168L587 1164L588 1164"><title>แม่น้ำปิง</title></path><path class="river big" d="M588 1164L589 1178L581 1187L578 1188L579 1184L574 1176L569 1177L568 1180L567 1188L570 1192L577 1197L577 1207L574 1209L571 1208L569 1205L568 1199L566 1198L563 1200L563 1204L557 1214L550 1215L548 1217"><title>แม่น้ำปิง</title></path><path class="river big" d="M624 993L635 1006L641 1017L641 1021L637 1023L632 1019L630 1019L623 1024L617 1026L617 1028L619 1031L620 1035L612 1045L603 1043L597 1045L597 1050L602 1057"><title>แม่น้ำปิง</title></path><path class="river big" d="M602 1384L604 1387L605 1393L607 1395L607 1398L611 1402L608 1408L609 1411L614 1413L618 1416L616 1425L622 1427L622 1428L620 1433L626 1439L628 1457L633 1459L635 1467L641 1470L641 1477L639 1482L640 1484L644 1491L651 1493L658 1500L656 1507L663 1510L670 1516L672 1519L673 1526"><title>แม่น้ำปิง</title></path><path class="river big" d="M548 1217L550 1220L560 1226L572 1225L575 1225L577 1228L577 1233L574 1235L567 1233L563 1233L557 1243L563 1252L574 1257L575 1262L574 1266L573 1268L569 1268L562 1261L559 1260L553 1264L551 1269L552 1270L559 1269L566 1275L570 1275"><title>แม่น้ำปิง</title></path><path class="river big" d="M766 876L763 877L759 881L759 886L757 888L755 889L751 888L747 890L744 897L740 901L733 904L729 908L724 910L723 918L716 918L712 926L704 925L696 928L686 940L679 939L673 942L670 943L666 937L657 932"><title>แม่น้ำปิง</title></path><path class="river big" d="M842 316L841 325L839 331L841 333L843 331L846 332L849 339L852 338"><title>แม่น้ำปิง</title></path><path class="river big" d="M570 1275L575 1275L577 1285L580 1287L587 1285L590 1277L593 1276L592 1282L595 1289L603 1300"><title>แม่น้ำปิง</title></path><path class="river big" d="M853 179L854 182L853 183L847 185L846 183L845 185L844 188L846 190L844 191L844 194L842 194L844 196L842 197L842 202L839 203L838 207L838 211L840 212L838 214L841 216L837 222L838 224L834 225L834 228L835 229L834 231L835 237L831 238L829 241L832 244L835 244L834 245L836 248L833 251L836 256L833 257L830 256L830 258L836 263L835 267L837 268L837 269L839 270L838 271L839 272L837 275L841 280L839 287L842 288L840 293L838 295L842 297L837 299L839 300L841 304L841 308L843 310L840 312L842 316"><title>แม่น้ำปิง</title></path><path class="river big" d="M855 143L857 145L858 141L859 141L861 144L860 145L863 147L859 150L860 152L857 151L857 153L855 154L854 157L855 160L859 160L859 161L856 161L855 164L859 163L860 168L862 169L861 170L862 173L860 174L859 176L861 178L859 178L857 174L855 174L852 177L853 179"><title>แม่น้ำปิง</title></path><path class="river big" d="M782 -62L783 -58L780 -56L784 -52L783 -50L784 -47L785 -49L786 -47L788 -48L788 -46L789 -46L795 -40L795 -39L797 -36L801 -35L799 -34L800 -31L799 -31L802 -26L802 -23L803 -23L801 -22L803 -18L802 -17L800 -17L801 -15L800 -14L802 -6L796 -1L799 0L797 4L799 7L802 8L802 9L805 10L808 8L813 15L818 14L816 19L815 19L817 21L814 22L816 23L815 31L813 30L813 33L814 34L815 33L818 39L822 36L821 40L823 40L822 42L827 48L825 49L827 52L825 54L828 54L825 57L825 59L830 64L828 68L828 70L829 70L830 76L827 79L831 85L830 88L827 87L827 88L829 94L830 93L830 95L834 96L832 99L832 101L835 101L836 98L840 101L841 111L844 114L845 119L846 118L846 121L847 120L849 123L851 132L853 134L854 133L855 137L858 136L857 138L854 140L855 140L855 143"><title>แม่น้ำปิง</title></path><path class="river big" d="M853 402L852 404L853 407L849 408L845 412L849 414L850 416L847 418L841 412L841 417L839 417"><title>แม่น้ำปิง</title></path><path class="river big" d="M888 368L886 371"><title>แม่น้ำปิง</title></path><path class="river big" d="M789 868L786 869"><title>แม่น้ำปิง</title></path><path class="river big" d="M595 1071L596 1075L593 1082L597 1087L588 1090L591 1097L593 1106L589 1112L587 1112L582 1111L581 1112"><title>แม่น้ำปิง</title></path><path class="river big" d="M789 868L787 868"><title>แม่น้ำปิง</title></path><path class="river big" d="M855 349L859 351L859 354L860 354"><title>แม่น้ำปิง</title></path><path class="river big" d="M839 417L836 416L834 418L832 417L831 416L832 414L831 412L824 414L818 420L817 425L820 429L820 431L823 431L825 435L824 437L819 436L818 441L824 443L822 451L828 452L827 457L832 463L832 465L829 468L832 476L829 479L829 482L832 488L835 490L835 493L838 496L837 498"><title>แม่น้ำปิง</title></path><path class="river big" d="M866 358L866 356L867 357"><title>แม่น้ำปิง</title></path><path class="river big" d="M868 367L871 368"><title>แม่น้ำปิง</title></path><path class="river big" d="M852 338L851 340L854 340L854 343L855 344L854 345L857 346L855 349"><title>แม่น้ำปิง</title></path><path class="river big" d="M886 371L882 376L879 373L876 373L875 375L870 374"><title>แม่น้ำปิง</title></path><path class="river big" d="M860 354L859 356L861 358"><title>แม่น้ำปิง</title></path><path class="river big" d="M861 358L867 358L867 362L868 365L871 364L868 367"><title>แม่น้ำปิง</title></path><path class="river big" d="M870 374L867 377L867 381"><title>แม่น้ำปิง</title></path><path class="river big" d="M871 368L870 370L872 371L870 374"><title>แม่น้ำปิง</title></path><path class="river big" d="M867 381L867 384L868 386L866 389L867 392L862 394L863 397L861 396L859 398L859 401L858 400L856 402L853 402"><title>แม่น้ำปิง</title></path><path class="river big" d="M602 1057L603 1063L600 1065L594 1066L593 1068L594 1071"><title>แม่น้ำปิง</title></path><path class="river big" d="M824 437L821 436"><title>แม่น้ำปิง</title></path><path class="river big" d="M825 435L824 436"><title>แม่น้ำปิง</title></path><path class="river" d="M-150 -15L-149 -3L-164 13L-165 24L-170 28L-169 33L-161 52L-165 74L-167 78L-174 82L-179 87L-182 109L-183 112L-190 118L-196 128L-195 135L-197 142L-191 149L-194 161L-200 170L-211 176L-214 180L-231 183L-238 188L-243 201L-248 206L-246 216L-237 227L-236 230L-238 250L-241 262L-236 278"><title>သံလွင်မြစ်</title></path><path class="river" d="M-103 1521L-106 1529L-105 1540L-109 1549L-107 1555L-104 1556L-103 1559L-101 1567L-101 1580L-95 1600L-97 1604L-91 1619L-81 1634L-78 1645L-72 1654L-70 1664L-68 1667L-71 1669L-71 1671L-67 1674L-64 1675L-60 1679L-56 1691L-60 1694L-66 1713L-67 1730L-62 1749"><title>แม่น้ำสาละวิน</title></path><path class="river" d="M923 697L920 696L915 706"><title>น้ำแม่โฮม</title></path><path class="river" d="M501 774L507 768L511 768L512 767L517 765L518 764L520 763L522 765L524 763L529 765L529 767L535 768L539 770L553 770L554 771L557 768L559 767L561 770L562 769L569 772L572 772L575 775L585 772L590 766L594 763L598 766L600 764L600 761L605 759L606 761L608 761L609 764L611 762L614 765L614 766L620 766L623 768L627 767L630 769L631 771L628 772L632 775L633 778L636 776L638 780L641 781L642 785L649 787L649 790L651 791L652 792L656 793L658 797L660 796L661 797L665 796L667 797L669 796L677 798L678 796L682 800L687 797L689 801L692 803L694 803L695 805L697 806L700 808L701 812L705 812L711 819L716 818L720 820L722 818L724 820L727 819L728 821L736 825L738 825L737 823L740 823L742 828L742 829L743 830L743 836L752 845L754 845L756 849L757 849L758 850"><title>คลองแม่วาง</title></path><path class="river big" d="M76 1350L76 1357L69 1357L68 1359L73 1361L76 1359L86 1370L85 1376L88 1382L89 1389L84 1389L82 1393L69 1395L55 1394L50 1398L47 1409L43 1412L41 1416L46 1424L46 1428L43 1433L39 1437L32 1439L25 1444L21 1444L19 1446L18 1449L14 1447L13 1451L10 1452L2 1457L-13 1455L-20 1451L-29 1456L-37 1458L-44 1452L-52 1456L-58 1457L-61 1459L-65 1456L-68 1457L-71 1453L-73 1454L-74 1450L-76 1452"><title>แม่ยวม</title></path><path class="river big" d="M45 894L46 898L45 899L48 902L48 900L47 900L48 897L51 903L44 904L45 906L47 904L48 905L46 908L47 912L46 914L50 913L49 921L52 922L51 924L51 926L48 929L56 929L51 934L49 934L50 937L49 941L44 942L51 948L51 950L47 954L49 958L52 959L53 963L52 965L49 964L48 966L50 969L52 969L54 975L49 976L50 979L48 986L49 988L53 989L53 990L50 993L48 998L49 1000L51 997L52 997L53 999L52 1001L53 1003L59 1003L62 1009L61 1011L58 1013L57 1015L50 1014L48 1022L45 1022L43 1024L44 1027L48 1027L45 1036L46 1039L52 1043L50 1050L47 1050L44 1052L48 1060L54 1061L55 1067L59 1066L59 1068L56 1070L58 1072L58 1075L61 1077L62 1075L67 1075L65 1076L66 1080L63 1083L63 1080L59 1080L58 1089L60 1092L56 1092L53 1093L55 1101L58 1102L58 1110L63 1112L62 1116L64 1117L66 1125L65 1126L67 1129L66 1131L60 1135L59 1139L60 1142L58 1145L60 1150L64 1150L65 1153L61 1157L61 1167L65 1172L65 1177L67 1181L64 1189L61 1190L65 1192L67 1199L65 1202L68 1203L68 1210L66 1214L63 1214L66 1219L64 1220L63 1226L61 1226L59 1227L61 1234L58 1240L61 1243L60 1248L60 1251L58 1253L58 1258L53 1261L49 1266L58 1271L56 1275L52 1274L50 1276L52 1281L51 1284L54 1287L57 1287L57 1293L60 1296L58 1301L60 1303L59 1308L63 1313"><title>แม่ยวม</title></path><path class="river big" d="M48 846L49 849L46 851L47 853L44 854L45 851L43 850L38 852L40 854L41 858L38 859L37 864L39 866L36 867L37 868L39 868L43 872L43 874L41 874L43 875L43 877L40 879L38 882L40 888L41 886L44 886L45 892L43 892L45 894"><title>แม่ยวม</title></path><path class="river big" d="M27 739L28 736L29 740L26 743L28 745L26 748L27 755L25 758L27 762L25 765L24 769L27 772L29 771L29 775L32 774L35 778L35 781L38 786L37 787L36 787L36 790L39 791L41 795L41 793L41 791L43 791L43 797L45 798L45 801L47 802L47 804L51 807L47 811L46 814L44 812L44 815L43 816L41 812L38 812L41 814L41 818L44 818L44 821L47 822L45 824L46 827L49 828L50 833L47 834L49 835L49 840L47 843L48 846"><title>แม่ยวม</title></path><path class="river big" d="M63 1313L66 1316L67 1322L71 1323L70 1329L74 1332L73 1336L75 1339L73 1344L76 1350"><title>แม่ยวม</title></path><path class="river big" d="M52 1285L57 1286L57 1287"><title>แม่ยวม</title></path><path class="river big" d="M17 738L27 739"><title>แม่ยวม</title></path><path class="river big" d="M2 696L3 696L5 695L5 697L2 700L5 701L6 705L8 706L7 707L3 707L2 709L4 709L6 713L7 712L7 714L9 714L9 720L11 719L14 723L15 728L13 727L13 732L14 733L16 733L17 735L16 736L17 738"><title>แม่ยวม</title></path><path class="river" d="M937 684L940 682"><title>น้ำแม่ปูคา</title></path><path class="river" d="M940 682L943 682L941 681L946 676"><title>น้ำแม่ปูคา</title></path><path class="river" d="M930 693L929 692L932 691L937 684"><title>น้ำแม่ปูคา</title></path><path class="river" d="M963 709L957 706L955 706L952 704"><title>น้ำแม่ออน</title></path><path class="river" d="M1000 703L996 707"><title>น้ำแม่ออน</title></path><path class="river" d="M994 705L989 705L989 704L991 703L990 702L985 699L984 701L980 700L977 703L970 704L970 706L967 705L963 709"><title>น้ำแม่ออน</title></path><path class="river" d="M1014 701L1010 702L1010 699L1008 701L1004 701L1003 703L1000 703"><title>น้ำแม่ออน</title></path><path class="river" d="M952 704L939 703"><title>น้ำแม่ออน</title></path><path class="river" d="M871 611L871 616L869 616L869 619L868 620L870 622L871 625L868 627L868 633L872 631L874 632L875 635L872 637L875 639L874 640L876 640L875 642L876 645L881 647L882 655L884 658L887 658L888 660L890 660L890 662L893 661L898 677L899 678L899 684"><title>น้ำแม่คาว</title></path><path class="river" d="M899 684L901 685L901 689L904 689L904 692"><title>น้ำแม่คาว</title></path><path class="river" d="M871 607L869 609L871 611"><title>น้ำแม่คาว</title></path><path class="river" d="M644 257L644 264L646 263L647 264L644 267L645 269L644 272L647 272L647 274L650 275L651 280L655 279L651 275L662 276L667 280L667 283L672 286L676 290L679 291L684 297L686 298L688 296L687 300L690 301L693 307L696 309L699 309L702 311L717 311L722 314L722 317L728 320L730 318L738 317L742 322L751 322L755 325L757 328L761 326L765 328L765 332L771 334L772 337L775 339L778 340L780 337L783 344L785 344L791 349L798 354L797 356L798 367L802 371"><title>น้ำแม่แตง</title></path><path class="river" d="M801 370L803 372"><title>น้ำแม่แตง</title></path><path class="river" d="M802 371L807 376L811 378L810 381L811 383L813 383L815 381L816 383L816 389L817 390L818 395L821 395L822 396L820 398L823 403L820 405L823 408L819 412L820 413L822 413L823 414"><title>น้ำแม่แตง</title></path><path class="river" d="M750 322L751 322"><title>น้ำแม่แตง</title></path><path class="river" d="M644 210L643 211L646 211L647 214L645 216L647 218L642 218"><title>น้ำแม่แตง</title></path><path class="river" d="M642 218L643 220L639 225L640 226L636 227L637 229L634 231L634 236L638 238L641 241L640 244L641 251L639 251L638 255L642 253L640 258L642 260L644 257"><title>น้ำแม่แตง</title></path><path class="river" d="M652 160L653 160L657 168L656 170L659 172L654 173L652 177L648 179L650 185L647 188L647 200L649 199L648 202L650 203L649 206L646 205L644 206L644 210"><title>น้ำแม่แตง</title></path><path class="river" d="M583 56L581 57L584 59L583 60L585 60L585 61L586 61L588 62L589 59L591 61L593 67L595 66L595 64L598 64L599 67L601 67L601 69L603 69L604 75L603 76L607 79L607 83L603 84L605 87L607 86L608 88L610 88L611 90L609 92L610 97L606 97L608 104L608 106L606 107L608 108L607 111L609 114L612 118L618 119L620 122L620 124L622 125L623 127L625 127L627 132L630 132L629 138L632 141L632 147L636 147L636 152L646 158L647 157L650 159L650 160L652 160"><title>น้ำแม่แตง</title></path><path class="river" d="M852 739L855 742L858 742L865 747L866 750L872 754L872 758L870 764L871 775L867 776L864 781L863 786L859 788L851 797L846 798L842 803"><title>แม่น้ำปิงน้อย</title></path><path class="river" d="M811 547L810 551L814 553L815 551L817 552L817 554L820 557L824 556L825 558L829 559L830 557L832 559L835 557L838 558"><title>น้ำแมริม</title></path><path class="river" d="M740 414L741 416L742 415L747 419L748 422L750 422L750 424L751 423L752 426L754 427L754 431L752 436L754 438L754 448L758 454L759 458L760 459L761 463L768 462L769 468L768 472L771 475L769 475"><title>น้ำแมริม</title></path><path class="river" d="M800 524L798 526L799 528L798 529L802 532L802 538L806 545L808 546L808 547L811 547"><title>น้ำแมริม</title></path><path class="river" d="M769 475L769 478L771 478L770 479L774 481L773 484L774 484L776 486L776 493L778 494L778 496L781 502L783 502L782 507L784 509L787 507L789 509L791 508L793 510L799 511L799 513L797 515L798 520L801 522L800 524"><title>น้ำแมริม</title></path><path class="river" d="M823 523L822 527L826 534L829 534L833 540L833 542L834 545L832 549L834 550L833 553L835 553L835 557"><title>แม่ร้อง</title></path><path class="river" d="M824 516L823 522"><title>แม่ร้อง</title></path><path class="river" d="M733 567L733 572L737 576L737 580L740 582L741 578L747 577L748 575L753 576L754 574L756 575L765 574L772 575L779 572L781 569L789 570L794 565L805 564L808 567L809 566L811 568L814 566L816 570L816 572L818 572L819 577L822 578L827 576L835 579L838 579L841 581"><title>น้ำแม่สา</title></path><path class="river" d="M1015 885L1015 888L1012 892L1007 893L1006 896L998 902L999 906L995 907L993 909L992 913L989 913L986 917"><title>ลำน้ำแม่ทา</title></path><path class="river" d="M986 917L984 917L981 913L980 918"><title>ลำน้ำแม่ทา</title></path><path class="river" d="M980 918L977 918L975 917L972 918L970 919L968 925L964 926L961 929L951 931L949 935L940 935L936 938L931 937L929 943L927 941L919 941L918 938L913 941L913 944L912 946L904 946L904 950L901 950L899 948L897 951L891 951L885 953L881 953L876 949L872 951L866 951L864 954L858 954L856 953L848 953L847 947L846 947L842 953L838 955L836 951L832 949L835 945L826 941L823 934L822 928L826 923L824 917L827 915L826 913L828 911L829 906L825 902L824 896L820 892L822 888L820 885L822 883L820 880L822 879L819 875L817 871L819 866L818 863L819 861L818 857"><title>ลำน้ำแม่ทา</title></path><path class="river" d="M667 186L664 187L666 188L665 188L663 191L661 191L660 192L659 191L654 197L650 197L650 199L649 200"><title>ลำน้ำคอง</title></path><path class="river" d="M547 559L548 561L551 562L552 560L556 560L558 563L556 564L559 567L558 570L555 569L554 572L556 574L555 576L557 576L557 578L563 582L565 585L568 586L569 588L568 590L569 591L571 591L573 593L575 592L581 592L582 596L586 596L589 600L591 598L596 598L594 602L597 601L597 603L600 604L598 605L598 609L602 608L605 613L609 614L615 625L618 629L623 640L632 643L641 655L645 657L660 655L663 660L662 662L671 666L669 670L673 678L675 677L680 678L680 682L683 683L686 683L686 687L691 688L694 692L694 694L696 693L697 696L700 695L703 698L703 700L705 700L710 702L711 705L716 707L718 710L719 710L721 707L724 706L727 713L730 714L729 721L730 722L730 724L729 726L726 726L727 729L725 732L721 733L719 735L719 738L722 737L722 739L718 743L726 749"><title>ลำน้ำขาน</title></path><path class="river" d="M726 749L726 753L729 752L730 755L733 755L734 757L729 763L730 775L726 777L726 779L728 780L728 783L731 785L735 785L734 787L736 788L735 790L738 793L738 794L743 794L741 797L744 797L745 799L747 798L748 800L750 800L750 802L753 803L754 807L756 807L758 811L757 812L755 813L758 818L756 823L760 825L758 830L762 834L763 837L759 843L761 846L758 850"><title>ลำน้ำขาน</title></path><path class="river" d="M755 871L754 875L755 876L753 878L756 882L751 884L752 886L751 888"><title>ลำน้ำขาน</title></path><path class="river" d="M758 850L759 850L757 854L758 857L756 858L757 860L754 860L757 869L755 869L755 871"><title>ลำน้ำขาน</title></path><path class="river" d="M546 515L548 517L546 518L546 521L544 522L545 523L544 524L547 524L548 528L548 526L550 527L549 531L544 535L546 540L544 551L547 553L548 557L546 557L547 559"><title>ลำน้ำขาน</title></path><path class="river" d="M910 680L914 675"><title>เหมืองห้า</title></path><path class="river big" d="M733 1072L728 1063L730 1061L729 1057L731 1055L731 1051L729 1049L729 1047L732 1041L728 1035L720 1028L719 1023L716 1021L719 1016L713 1016L709 1013L705 1014L700 1012L695 1006L695 1002L693 999L693 995L687 994L685 990L676 990L673 987L671 987L671 983L669 983L666 976L669 972L665 969L666 966L662 963L661 961L657 964L655 960L656 959L655 956L651 950"><title>แม่น้ำลี้</title></path><path class="river big" d="M793 1325L795 1322L791 1322L792 1318L789 1316L787 1310L784 1309L785 1306L783 1303L781 1303L779 1304L778 1302L779 1301L778 1300L776 1300L774 1302L772 1299L773 1296L772 1294L774 1292L771 1289L773 1286L772 1283L776 1282L779 1278L778 1276L780 1275L782 1275L778 1269L780 1267L780 1264L783 1262L780 1258L778 1257L777 1253L779 1250L781 1251L781 1247L779 1243L775 1241L777 1237L778 1237L779 1236L780 1237L781 1235L780 1232L781 1229L778 1228L780 1227L783 1227L784 1226L787 1227L789 1223L789 1221L787 1220L785 1218L787 1210L791 1209L788 1206L790 1205L790 1204L786 1204L790 1201L785 1194L784 1191"><title>แม่น้ำลี้</title></path><path class="river big" d="M784 1191L782 1188L782 1185L780 1188L777 1187L781 1184L782 1180L786 1180L786 1175L784 1175L783 1173L785 1170L784 1168L781 1166L783 1165L783 1160L779 1156L779 1154"><title>แม่น้ำลี้</title></path><path class="river big" d="M779 1154L781 1150L779 1149L777 1149L774 1152L773 1154L769 1153L769 1151L772 1145L771 1142L767 1142L766 1139L760 1138L759 1142L754 1141L757 1138L757 1134L754 1131L751 1133L751 1130L747 1125L749 1125L750 1123L748 1120L752 1119L749 1117L751 1112"><title>แม่น้ำลี้</title></path><path class="river big" d="M751 1112L747 1109L749 1107L747 1103L747 1101L751 1102L752 1101L750 1099L745 1099L742 1096L740 1100L733 1096L733 1088L738 1084L737 1081L734 1080L735 1078L733 1072"><title>แม่น้ำลี้</title></path><path class="river big" d="M842 1459L840 1458L840 1454L843 1454L839 1452L841 1449L834 1446L834 1444L830 1442L829 1436L827 1436L825 1433L828 1432L826 1432L825 1428L818 1425L816 1427L813 1424L813 1421L815 1420L814 1416L815 1415L813 1415L812 1405L813 1397L816 1393L813 1393L813 1391L810 1392L808 1390L811 1388L811 1387L813 1386L814 1385L811 1385L805 1378L805 1376L807 1375L806 1371L800 1366L801 1362L799 1362L799 1359L796 1358L796 1351L799 1349L799 1345L795 1343L794 1340L797 1334L795 1332L793 1332L795 1328L792 1328L793 1325"><title>แม่น้ำลี้</title></path><path class="river big" d="M925 1368L925 1376L923 1376L923 1379L923 1382L919 1384L919 1388L915 1390L909 1389L905 1392L907 1393L905 1394L900 1389L900 1390L897 1388L894 1389L892 1388L889 1391L887 1390L881 1395L882 1399L881 1401L882 1404L875 1404L874 1408L869 1408L869 1410L867 1410L868 1412L870 1413L870 1414L871 1416L870 1417L870 1422L871 1420L871 1426L873 1428L872 1429L876 1436L871 1447L871 1451L868 1451L866 1457L864 1458L861 1456L861 1462L857 1462L857 1461L856 1463L853 1463L853 1462L853 1464L849 1465L848 1463L846 1463L846 1462L843 1461L842 1459"><title>แม่น้ำลี้</title></path><path class="river big" d="M886 1250L889 1254L886 1255L883 1259L883 1261L882 1261L882 1263L886 1264L883 1268L882 1273L884 1275L882 1278L884 1281L888 1283L886 1285L886 1289L888 1290L888 1295L894 1296L895 1299L893 1302L894 1306L898 1308L896 1313L900 1315L898 1316L900 1318L898 1321L900 1322L899 1323L900 1325L898 1326L900 1327L898 1329L900 1331L898 1334L901 1335L899 1336L899 1337L901 1338L902 1342L904 1341L904 1339L907 1338L915 1345L912 1348L916 1351L917 1354L920 1354L921 1360L925 1368"><title>แม่น้ำลี้</title></path><path class="river" d="M104 1127L102 1132L106 1133L105 1134L106 1136L104 1138L105 1140L101 1145L98 1146L96 1149L93 1150L90 1156L85 1152L82 1153L80 1152L80 1154L77 1155L75 1159L73 1160L72 1158L70 1158L70 1163L64 1164L62 1168"><title>ห้วยแม่สะเรียง</title></path><path class="river" d="M1019 708L1015 712L1012 710L1010 711L1009 710"><title>น้ำแม่ผาแหน</title></path><path class="river" d="M862 457L856 454L853 456L849 456L841 466L837 466L836 465L833 469L830 469"><title>ห้วยแม่แฝก</title></path><path class="river big" d="M1327 871L1329 871L1331 873L1335 875L1335 877L1338 882L1343 882L1341 886L1338 887L1339 891L1333 891L1333 896L1330 905L1332 906L1331 908L1325 911L1323 914L1325 928L1332 936L1332 937L1332 940L1330 940L1327 940L1326 937L1324 937L1322 941L1320 943L1321 947L1316 950L1315 956L1316 962L1314 966L1312 967L1312 971L1307 974L1305 974L1301 972L1303 976L1301 981L1304 983L1304 985L1297 985L1294 989L1288 991L1286 998L1276 1002L1274 1005L1271 1001L1269 1002L1268 1008L1262 1010L1262 1017L1257 1023L1255 1025L1255 1029L1251 1037L1254 1041L1247 1041L1243 1045L1244 1050L1243 1052L1240 1052L1236 1051L1229 1053L1224 1047L1221 1048L1219 1053L1211 1054L1206 1062L1208 1069L1202 1072L1200 1077L1197 1078L1196 1085L1186 1089L1181 1095L1175 1095L1177 1100L1175 1106L1165 1116L1163 1119L1159 1122L1155 1129L1158 1132L1156 1139L1159 1146L1154 1148L1154 1154L1149 1156L1143 1168L1136 1172L1132 1176L1128 1177L1122 1186L1122 1192L1116 1204L1119 1208L1119 1211L1120 1216L1118 1218L1115 1218L1110 1221L1108 1216L1106 1215L1105 1217L1103 1225L1107 1227L1111 1226L1117 1234L1115 1239L1110 1244L1110 1245L1118 1246L1117 1248L1119 1252L1118 1254L1113 1254L1108 1260L1104 1262L1101 1265L1101 1266L1103 1270L1099 1273L1099 1283L1106 1292L1103 1293L1099 1290L1096 1290L1093 1296L1094 1297L1097 1297L1099 1303L1110 1314L1119 1319L1120 1322L1117 1340L1111 1348L1108 1357L1111 1363L1107 1366L1105 1371L1106 1377L1104 1380L1102 1381L1098 1376L1096 1376L1089 1394L1084 1394L1083 1397L1081 1398L1076 1398L1074 1397L1075 1403L1078 1403L1080 1405L1079 1410L1077 1411L1073 1410L1074 1414L1073 1417L1066 1416L1066 1419L1064 1420L1065 1429L1059 1433L1060 1439L1057 1445L1050 1449L1049 1454L1045 1458L1045 1465L1039 1468L1038 1470L1038 1474L1034 1475L1034 1478L1031 1481L1033 1487L1032 1493L1030 1496L1031 1513L1029 1517L1030 1519L1034 1521L1034 1523L1033 1524L1029 1522L1028 1524L1033 1532L1038 1530L1038 1533L1036 1535L1035 1538L1039 1542L1042 1543L1043 1548L1047 1553L1047 1555L1035 1565L1032 1578L1033 1583L1026 1586L1024 1593L1019 1594L1018 1595L1022 1603L1017 1607L1015 1613L1007 1617L998 1616L995 1618L995 1623L1001 1624L1002 1627L994 1635L995 1648L997 1651L988 1661L988 1663L991 1666L988 1667L978 1668L970 1667L967 1668"><title>แม่น้ำวัง</title></path><path class="river big" d="M410 1472L412 1475L411 1477L404 1478L404 1481L408 1481L409 1479L411 1479L412 1483L411 1489L416 1489L416 1493L420 1491L424 1492L421 1496L420 1504L420 1507L423 1507L425 1510L430 1510L428 1515L429 1515L432 1514L432 1516L431 1519L429 1520L429 1522L430 1523L433 1523L436 1526L436 1531L440 1530L442 1533L441 1538L437 1538L437 1542L439 1542L439 1540L441 1541L437 1545L439 1548L437 1550L438 1556L442 1556L444 1557L441 1561L442 1565L440 1567L439 1568L434 1565L432 1571L435 1573L433 1577L436 1579L437 1583L438 1583L439 1587L443 1589L442 1592L445 1590L446 1591L445 1596L439 1600L436 1598L433 1599L437 1602L439 1601L440 1601L436 1604L436 1608L434 1611L437 1614L439 1614L439 1616L436 1617L430 1617L428 1619L429 1621L435 1622L433 1624L429 1625L432 1629L427 1636L431 1642L430 1645L432 1655L431 1658L430 1658L426 1653L420 1652L420 1656L417 1656L418 1662L417 1664L421 1667L417 1669L417 1673L420 1674L421 1677L424 1676L432 1678L433 1672L434 1671L440 1677L440 1680L445 1682L444 1688L450 1693L449 1700L450 1701L454 1701L453 1712L452 1714L455 1724L454 1733L459 1739L459 1745L463 1743L466 1747L466 1749L460 1753L456 1762L465 1768L466 1760L468 1758L471 1758L471 1767L467 1771L470 1776L476 1778L479 1778L481 1781L481 1785L478 1788L478 1789L480 1788L483 1788L482 1793L480 1796L480 1798L485 1803L492 1803L496 1805L493 1807L492 1811L489 1811L490 1813L496 1812L492 1822L483 1826L484 1829L479 1831L478 1834L475 1836L476 1840L477 1841L480 1834L484 1833L485 1838L479 1840L484 1843L483 1849L486 1850L486 1855L490 1857L488 1861L495 1861L496 1867L499 1868L500 1871L503 1872L503 1876L507 1877L506 1890L514 1894L513 1898L518 1904L519 1909L523 1911L523 1915L529 1914L537 1919L542 1919L543 1924L547 1926L541 1925L541 1927L545 1929L547 1934L549 1935L548 1936L547 1939L549 1940L547 1946L550 1944L551 1946L554 1947L554 1949L557 1948L560 1956L565 1957L568 1963L572 1962L573 1963L574 1968L581 1969L585 1964L590 1969L600 1976L603 1974L607 1974L608 1966L613 1972L617 1971L616 1964L614 1962L615 1958L613 1954L615 1951L614 1946L617 1946L619 1943L625 1942L625 1936L630 1930L629 1929L625 1927L625 1923L621 1918L623 1914L625 1913L625 1909L630 1905L630 1895L628 1888L629 1886L634 1888L636 1883L633 1881L633 1879L637 1879L641 1881L641 1875L645 1869L644 1868L639 1869L637 1868L638 1862L642 1861L644 1857L637 1846L628 1844L624 1841L624 1835L621 1833L620 1829L622 1828L626 1830L626 1829L624 1824L618 1820L621 1812L621 1810L614 1809L611 1803L612 1797L615 1793L612 1789L615 1787L617 1782L616 1779L612 1778L611 1775L613 1773L617 1774L619 1770L615 1767L615 1763L617 1756L622 1750L621 1743L633 1736"><title>น้ำแม่ตื่น</title></path><path class="river big" d="M383 1444L387 1446L390 1446L392 1453L394 1451L398 1450L399 1455L397 1455L398 1458L396 1456L395 1458L397 1459L401 1459L398 1462L402 1464L400 1465L403 1469L403 1470L405 1470L406 1473L410 1472"><title>น้ำแม่ตื่น</title></path><path class="river big" d="M342 1405L347 1410L350 1411L350 1413L349 1414L350 1416L350 1417L351 1422L353 1422L353 1426L358 1427L358 1428L361 1428L359 1433L364 1438L363 1441L366 1442L368 1445L373 1442L377 1443L378 1441L379 1443L381 1442L383 1444"><title>น้ำแม่ตื่น</title></path><path class="river" d="M451 1409L444 1408L435 1409L428 1404L427 1406L424 1406L417 1409L411 1409L411 1408L407 1411L403 1412L404 1415L401 1417L402 1420L400 1423L397 1424L398 1428L396 1431L393 1430L387 1433L390 1434L392 1436L388 1437L388 1439L390 1439L383 1444"><title>น้ำแม่ต๋อม</title></path><path class="river" d="M303 641L303 645L305 647L303 654L300 655L300 658L301 659L300 662L301 668L303 669L300 668L298 672L299 673L299 675L301 674L303 675L303 677L300 679L301 680L303 680L304 682L307 682L309 684L309 687L315 688L312 691L311 691L311 694L313 694L311 696L310 696L310 698L306 700L307 706L306 704L304 704L304 707L301 709L304 708L304 709L305 709L307 712L309 711L311 713L316 714L318 716L318 718L320 718L323 721L324 720L325 723L329 720L332 721L332 722L335 722L334 724L336 724L337 726L337 732L339 733L338 735L340 737L340 739L342 739L344 737L348 739L349 738L352 738L351 737L353 738L354 736L354 738L359 743L358 745L359 746L363 745"><title>Yod</title></path><path class="river" d="M382 779L384 779L385 781"><title>Yod</title></path><path class="river" d="M363 745L363 744L365 749L374 747L371 752L372 754L370 754L369 756L372 757L373 761L375 762L374 763L375 765L378 767L378 769L374 769L373 771L375 772L377 771L382 774L382 779"><title>Yod</title></path><path class="river" d="M329 136L329 133L332 130L332 129L330 129L332 127L331 123L332 123L335 115L330 107L324 104L324 99L321 96L318 87L315 86L313 87L310 85"><title>แม่อุมองหลวง</title></path><path class="river" d="M289 1558L289 1555L281 1556L272 1554"><title>แม่น้้ามอโกล</title></path><path class="river" d="M307 1529L304 1525L301 1525L298 1527L297 1526L294 1528L291 1527"><title>แม่น้ำแม่หลอง</title></path><path class="river" d="M291 1527L288 1530L288 1532L286 1532L284 1534L282 1534L279 1539"><title>แม่น้ำแม่หลอง</title></path><path class="river" d="M279 1539L272 1542"><title>แม่น้ำแม่หลอง</title></path><path class="river" d="M323 53L322 54L323 63L321 63L321 65L322 67L317 75L318 79L316 79L313 84L311 83L310 85"><title>น้ำลาง</title></path><path class="river" d="M353 -26L351 -20L352 -18L348 -17L351 -16L350 -14L354 -11L350 -7L347 -5L348 -4L347 -2L342 -3L342 -1L344 -1L340 3L342 4L340 4L339 7L337 7L339 8L338 14L339 15L339 20L340 21L336 22L337 23L332 27L334 30L332 30L332 32L331 33L330 32L329 34"><title>น้ำลาง</title></path><path class="river" d="M324 50L323 53"><title>น้ำลาง</title></path><path class="river" d="M244 82L246 81L251 82L256 80L260 81L264 78L267 79L267 74L273 71L273 68L278 69L285 74L287 79L295 81L296 85L298 84L299 87L301 86L303 88"><title>น้ำลาง</title></path><path class="river" d="M303 88L307 91L308 100L309 101L308 105L310 107"><title>น้ำลาง</title></path><path class="river" d="M303 88L307 89L310 85"><title>น้ำลาง</title></path><path class="river" d="M326 45L326 50L324 50"><title>น้ำลาง</title></path><path class="river" d="M329 34L328 32L327 34L328 37L326 38L328 40L326 45"><title>น้ำลาง</title></path><path class="river big" d="M-221 1604L-219 1604"><title>Yun Salin</title></path><path class="river big" d="M-479 957L-473 959L-470 956L-466 957L-464 956L-462 951L-459 951L-459 953L-460 956L-458 960L-432 975L-429 980L-419 988L-415 989L-414 992L-416 998L-418 1002L-419 1007L-416 1013L-412 1013L-410 1015L-408 1014L-404 1015L-400 1026L-399 1026L-396 1025L-395 1028L-393 1028L-392 1030L-389 1029L-388 1032L-387 1030L-386 1031L-383 1032L-382 1038L-384 1044L-382 1049L-380 1050L-376 1048L-374 1052L-370 1052L-372 1056L-371 1058L-368 1057L-368 1060L-365 1061L-362 1065L-363 1071L-362 1072L-360 1070L-359 1073L-356 1074L-354 1085L-351 1091L-352 1096L-348 1100L-343 1101L-343 1103L-344 1104L-344 1106L-339 1108L-339 1110L-341 1114L-340 1117L-342 1118L-342 1120L-339 1123L-340 1125L-334 1127L-334 1128L-336 1132L-334 1135L-329 1137L-330 1142L-326 1150L-327 1153L-325 1155L-320 1164L-318 1172L-314 1174L-314 1177L-312 1179L-311 1188L-306 1198L-307 1202L-303 1207L-306 1209L-306 1212L-303 1214L-301 1225L-298 1230L-307 1239L-306 1248L-309 1251L-310 1257L-312 1260L-309 1265L-308 1271L-306 1273L-310 1277L-309 1281L-309 1283L-314 1287L-311 1291L-314 1294L-313 1310L-308 1324L-310 1325L-310 1328L-306 1330L-303 1325L-302 1320L-298 1320L-297 1322L-299 1326L-295 1331L-299 1337L-296 1343L-296 1346L-298 1349L-301 1350L-303 1351L-300 1353L-299 1359L-293 1361L-292 1363L-292 1371L-287 1375L-283 1375L-281 1377L-283 1381L-276 1384L-275 1387L-275 1389L-279 1396L-277 1401L-277 1405L-270 1411L-268 1413L-271 1418L-268 1422L-266 1422L-262 1426L-263 1430L-267 1431L-270 1434L-265 1439L-266 1440L-270 1442L-268 1445L-268 1448L-265 1452L-265 1455L-258 1463L-258 1468L-255 1471L-253 1477L-247 1482L-241 1493L-238 1493L-229 1503L-228 1506L-237 1510L-238 1511L-238 1513L-230 1516L-229 1522L-230 1527L-237 1534L-237 1538L-235 1541L-231 1541L-227 1544L-228 1546L-232 1550L-234 1555L-230 1559L-228 1564L-229 1570L-225 1574L-225 1576L-229 1579L-225 1584L-222 1596L-220 1600L-219 1603L-216 1604L-213 1603L-207 1606L-203 1612L-200 1613L-197 1612L-193 1613L-188 1611L-187 1614L-182 1615L-181 1618L-185 1623L-180 1629L-179 1628L-178 1622L-175 1621L-173 1626L-167 1634L-168 1639L-165 1644L-166 1646L-167 1650L-169 1654L-173 1655L-174 1659L-171 1662L-169 1663L-167 1658L-157 1656L-153 1662L-152 1666L-150 1668L-146 1667L-144 1670L-142 1677L-139 1680L-142 1684L-142 1687L-141 1691L-138 1692L-136 1694L-137 1700L-140 1700L-146 1696L-148 1698L-140 1712L-139 1724L-142 1725L-144 1724L-147 1724L-150 1731L-145 1733L-146 1739L-141 1741L-139 1752L-137 1756L-140 1760L-140 1764L-135 1772L-130 1772"><title>Yun Salin</title></path><path class="river big" d="M-199 1613L-196 1612"><title>Yun Salin</title></path><path class="river big" d="M-183 1626L-183 1628L-180 1629"><title>Yun Salin</title></path><path class="river" d="M109 971L103 976L102 976L101 974L99 975L94 976L90 978L89 977L81 980L77 979L76 983L74 985L70 984L65 986L59 984L56 986L53 982L48 982"><title>แม่ฮุ</title></path><path class="river" d="M85 919L82 918L77 919L75 923L70 927L67 925L63 925L56 933L55 930"><title>ห้วยแม่ป่าง</title></path><path class="river" d="M72 816L74 817L74 819L73 819L72 822"><title>ห้วยเยวก</title></path><path class="river" d="M112 862L107 859L107 857L102 858L102 856L100 858L99 856L98 856L99 853L95 853L94 855L92 855L91 857L89 856L89 853L88 853L86 856L85 855L85 853L84 851L83 851L82 854L83 856L81 857L79 854L76 852L72 857L73 859L70 861L69 861L68 863L64 860L63 861L65 865L63 867L62 871L59 872L60 877L56 880L56 882L55 882L56 883L55 885L55 892L52 892L51 894L50 892L49 894L45 894"><title>ห้วยแม่ลาหลวง</title></path><path class="river" d="M52 892"><title>ห้วยแม่ลาหลวง</title></path><path class="river" d="M399 50L402 54L400 54L401 57L403 58L404 67L406 68L406 69L404 69L404 72L405 71L408 73L404 76L406 76L406 78L403 81L401 84L403 83L405 86L404 88L406 88L406 89L404 89L403 92L402 92L402 93L399 95L399 97L397 98L398 99L396 99L398 105L402 104L405 106L403 108L405 109L404 112L402 111L398 112L399 115L399 117L400 118L403 124L401 128L402 130L400 131L401 135L400 137L402 136L402 138L405 139L406 144L411 144L412 146L414 145L413 148L412 149L413 151L411 152L414 154"><title>แม่น้ำของ</title></path><path class="river" d="M414 154L414 157L416 158L414 160L416 161"><title>แม่น้ำของ</title></path><path class="river" d="M404 9L404 13L406 13L406 22L407 25L407 30L404 32L404 34L402 33L403 34L402 35L400 35L400 36L397 37L397 39L399 39L400 43L402 43L402 46L399 50"><title>แม่น้ำของ</title></path><path class="river" d="M416 161L417 164L421 165L423 164L426 166L426 170L427 171L426 174L428 178L431 179L434 177L436 179L439 180L440 184L442 185L441 188L447 191"><title>แม่น้ำของ</title></path><path class="river" d="M605 745L608 751L606 754L605 755"><title>Mae Mut</title></path><path class="river" d="M971 1135L977 1138L986 1137L985 1140L987 1143L987 1146L992 1148L995 1155L997 1156L997 1157L999 1160L1005 1161L1005 1164L1006 1165L1008 1170L1009 1178L1012 1180L1011 1183L1015 1190L1014 1192L1015 1195L1012 1196L1012 1202L1009 1205L1013 1209L1012 1216L1016 1218L1016 1220L1019 1222L1019 1224L1021 1224L1023 1222L1023 1224L1028 1226L1029 1224L1029 1226L1031 1226L1032 1224L1036 1224L1035 1220L1034 1218L1038 1216L1042 1219L1044 1218L1045 1221L1047 1221L1046 1228L1050 1229"><title>ลำน้ำแม่เลียง</title></path><path class="river" d="M1091 479L1080 488L1081 490L1079 491L1077 491L1077 495L1071 496L1069 498L1066 498L1067 499L1067 503L1064 503L1063 505L1060 506L1056 511L1052 513L1051 516L1049 515L1048 518L1039 524L1038 523L1037 524L1035 523L1034 525L1032 523L1029 523L1026 518L1024 517L1023 514L1020 513L1016 508L1018 513L1016 513L1018 516L1016 517L1012 514L1011 516L1010 512L1012 512L1009 511L1007 508L1002 509L1000 505L997 507L994 505L993 507L995 509L990 512L988 519L984 516L979 514L979 516L977 518L968 519L968 520"><title>น้ำแม่กวง</title></path><path class="river" d="M72 76L75 78L79 77L83 79L83 85L85 90L84 100L86 100L88 102L85 104L85 108L90 112L90 116L94 117L93 122L92 124L95 126L95 127L92 133L91 132L92 135L91 138L88 139L88 141L92 142L89 145L88 151L87 150L88 158L86 163L88 166L86 169L84 169L81 176L78 179L79 180L79 187L81 186L83 190L83 192L86 198L85 200L86 202L85 203L86 207L83 211L82 216L83 218"><title>แม่สะงา</title></path><path class="river" d="M-41 1291L-44 1288L-43 1286L-45 1287L-49 1282L-57 1279L-61 1280L-63 1283L-65 1283L-65 1287L-74 1292L-74 1300L-76 1299L-80 1300"><title>Sam Laep</title></path><path class="river" d="M127 626L123 626L122 623L119 625L116 620L113 621L104 618L100 619L97 617L96 619L94 618L92 621L90 625L87 626L85 625L84 627L82 626L76 628L70 648L65 646L62 648L55 649L54 651L51 649L50 652L48 650L45 651L44 655L42 653L39 654L35 651L36 650L33 648L32 649L30 649L28 651L30 652L29 653L24 653L24 651L23 652L18 652L17 653L19 655L16 654L15 655L17 657L13 658L11 662L12 665L14 664L13 668L15 668L11 670L13 672L11 672L11 674L12 676L9 676L9 678L7 678L7 681L5 682L7 683L6 687L3 687L1 690L4 692L3 694L2 694L2 696"><title>ห้วยน้ำยวม</title></path><path class="river" d="M995 421L995 419L993 418L995 415L992 411L993 407L992 405L990 404L990 401L988 399L988 397L987 396L985 391L986 385L988 385L988 384L986 382L985 378L986 376L983 375L985 373L985 366L980 362L980 359L980 357L990 352L987 352L984 348L982 347L983 344L982 341L979 342L977 336L975 338L969 336"><title>น้ำแม่ขอด</title></path><path class="river" d="M1021 410L1016 411L1013 410L1007 412"><title>ลำห้วยฮัก</title></path><path class="river" d="M1002 371L999 372L994 370L994 367L992 367L991 366L985 367"><title>แม่สายหลวง</title></path><path class="river" d="M1032 393L1029 394L1024 390L1022 391L1015 381L1014 383L1015 385L1011 386L1011 383L1010 383L1010 380L1008 378L1008 377L1005 375L1002 371"><title>แม่สายหลวง</title></path><path class="river" d="M1022 415L1019 415L1016 418L1013 418L1010 414L1008 415L1005 410L1004 407L1001 405L1001 401L996 402L988 398"><title>ลำห้วยแม่บอน</title></path><path class="river" d="M1012 437L1010 439L1009 437L1005 441L1003 440L1003 437L1001 437L997 436"><title>ลำน้ำขอด</title></path><path class="river" d="M898 137L897 138L897 139L892 142L888 142L889 144L887 146L884 146L888 153L886 154L885 152L884 151L883 154L884 156L882 157L884 159L879 163L881 165L879 170L878 168L875 169L875 167L868 170L867 169L865 171L862 170"><title>น้ำแม่ปําม</title></path><path class="river" d="M913 103L910 103L909 104L911 104L910 106L903 109L905 112L903 116L905 119L901 119L901 122L902 121L903 122L900 124L899 122L897 122L898 124L896 125L899 129L897 129L896 127L896 131L897 131L893 134L895 135"><title>น้ำแม่ปําม</title></path><path class="river" d="M895 135L898 137"><title>น้ำแม่ปําม</title></path><path class="river" d="M191 1644L187 1639L190 1637L188 1635L187 1631L188 1629L187 1627L189 1626L187 1623L188 1620L190 1619L191 1616L197 1622L201 1619L202 1621L203 1618"><title>น้ำแม่ระเมิง</title></path><path class="river" d="M437 1227L439 1229L442 1228L454 1219L457 1219L460 1222L464 1220L473 1222L475 1218L477 1219L477 1217L479 1217L482 1219L480 1221L483 1225L486 1225L489 1223L491 1226L493 1226L492 1224L494 1223L496 1228L498 1229L500 1226L504 1228L505 1226L508 1230L511 1228L513 1230L514 1228L519 1230L523 1233L530 1235L533 1234L534 1241L535 1242L539 1241L541 1243L540 1248L551 1248L554 1251L556 1258L555 1260L551 1261L551 1267"><title>ห้วยแม่ป่าไผ่</title></path><path class="river" d="M433 1229L434 1226L435 1228L437 1227"><title>ห้วยแม่ป่าไผ่</title></path><path class="river" d="M996 25L994 25L994 24L990 25L989 21L985 17L983 13L980 13L975 9L974 11L972 12L969 9L967 11L966 9L965 10L964 9L962 9L962 12L961 13L958 13L959 11L958 10L958 5L961 3L957 2L958 -3L956 -4L960 -7L960 -10L964 -11L966 -10L966 -13L974 -15L977 -19L975 -22L970 -25L973 -30L973 -38L975 -42L974 -44L975 -45"><title>น้ำฝาง</title></path><path class="river" d="M574 40L576 42L578 42L579 43L577 45L584 50L583 56"><title>น้ำแมแตง</title></path><path class="river" d="M576 36L573 38L574 40"><title>น้ำแมแตง</title></path><path class="river" d="M582 12L581 13L578 13L577 15L580 20L579 22L576 22L575 25L576 26L576 29L579 30L576 36"><title>น้ำแมแตง</title></path><path class="river" d="M257 1221L254 1222L252 1227L253 1229L251 1232L250 1229L244 1232L244 1229L243 1228L240 1229L238 1227L234 1228L235 1223L229 1223L231 1221L228 1221L228 1217L226 1216L226 1219L224 1221L221 1218L219 1219L218 1218L215 1220L212 1219L212 1218L215 1216L210 1215L211 1213L209 1213L209 1210L206 1213L203 1211L201 1214L204 1216L198 1218L196 1217L196 1221L191 1220L185 1223L186 1224L182 1226L185 1232L183 1234L184 1235L183 1236L187 1237L187 1240L186 1241L183 1241L181 1244L182 1248L182 1254L176 1256L172 1259L175 1260L177 1269L175 1270L172 1270L172 1273L170 1275L169 1281L162 1283L159 1288L159 1294L158 1297L159 1299L161 1311L163 1315L162 1319L163 1322L158 1320L156 1322L155 1325L152 1325L151 1328L149 1326L146 1328L142 1328L136 1332L134 1332L133 1334L134 1336L130 1338L132 1342L127 1346L126 1341L125 1340L124 1344L119 1344L117 1343L113 1347L112 1346L110 1347L98 1354L96 1347L92 1346L91 1348L87 1347L85 1343L87 1340L85 1337L82 1339L81 1348L78 1348L76 1350"><title>น้ำแม่ริด</title></path><path class="river" d="M515 692L515 694L516 694L518 699L517 701L524 706L529 706L532 711L537 714L537 720L540 720L540 721L542 721L545 725L546 724L549 726L550 725L551 727L550 727L551 729L556 729L557 730L557 732L559 731L560 733L562 733L562 735L565 738L568 738L577 744L579 742L587 745L591 749L595 750L599 754L604 754L604 757L605 759"><title>Mae Tian</title></path><path class="river" d="M-114 1010L-116 1012L-114 1017L-115 1017L-115 1019L-117 1022L-115 1025L-117 1025L-115 1028L-117 1028L-116 1030L-117 1031L-115 1035L-117 1034L-122 1036L-125 1038L-126 1037L-128 1038L-129 1041L-134 1041L-137 1049L-139 1048L-135 1052L-137 1054L-138 1056L-138 1055L-140 1054L-140 1057L-143 1054L-143 1058L-146 1056L-146 1054L-151 1056L-152 1055L-153 1056"><title>น้ำแม่แงะ</title></path><path class="river" d="M415 1179L426 1194L433 1200L434 1209L434 1214L437 1227"><title>ห้วยผาลาด</title></path><path class="river" d="M870 574L873 573"><title>ห้วยโจ้</title></path><path class="river" d="M873 573L875 571"><title>ห้วยโจ้</title></path><path class="river" d="M865 575L864 576"><title>ห้วยโจ้</title></path><path class="river" d="M869 574L870 574"><title>ห้วยโจ้</title></path><path class="river" d="M866 575L865 575"><title>ห้วยโจ้</title></path><path class="river" d="M607 932L608 934L607 936L611 937L615 942L616 945L615 948L618 950L617 953"><title>ห้วยวังม่วง</title></path><path class="river" d="M516 859L519 859L521 856L524 857L528 855L535 856L536 860L538 858L543 858"><title>Nam Mae Klang</title></path><path class="river" d="M508 859L516 859"><title>Nam Mae Klang</title></path><path class="river" d="M296 1889L294 1889L286 1896L280 1891L274 1890L272 1884L272 1878L269 1873L263 1869L256 1869L255 1867L246 1866L244 1863L241 1863L239 1860L241 1856L237 1850L230 1847L228 1844L226 1843L226 1840L217 1840L216 1839L219 1835L219 1833L216 1829L212 1828L212 1823L210 1818L206 1815L202 1819L200 1818L194 1804L194 1797L196 1795L194 1791L197 1789L201 1781L205 1778L204 1775L200 1775L198 1774L197 1769L199 1767L192 1762L186 1762L182 1758L178 1762L176 1763L173 1756L171 1755L169 1749L165 1747L161 1738L156 1736L150 1732L151 1728L155 1729L158 1727L159 1725L158 1722L156 1721L153 1721L148 1715L144 1714L110 1668L108 1666L104 1669L98 1669L95 1670L90 1663L92 1660L88 1655L70 1651L68 1650L66 1646L61 1646L59 1645L58 1636L56 1631L52 1630L49 1627L50 1623L47 1619L46 1610L34 1600L28 1597L25 1592L21 1591L3 1577L-3 1568L-11 1562L-13 1557L-16 1556L-18 1550L-26 1543L-30 1542L-31 1538L-37 1535L-39 1525L-50 1513L-52 1512L-57 1503L-60 1499L-59 1495L-61 1491L-61 1484L-58 1482L-55 1483L-52 1478L-55 1476L-59 1472L-63 1463L-71 1465L-74 1463L-76 1451"><title>แม่น้ำเมย</title></path><path class="river" d="M-99 1426L-101 1425L-105 1427L-114 1413"><title>แม่น้ำเมย</title></path><path class="river" d="M-76 1451L-82 1443L-90 1440L-91 1437L-94 1434L-92 1428L-93 1425L-95 1425L-99 1426"><title>แม่น้ำเมย</title></path></g><g class="bound"><path d="M-76 1451L-82 1443L-90 1440L-94 1435L-92 1428L-94 1425L-105 1427L-114 1414"/><path d="M-114 1414L-113 1407L-126 1386L-128 1375L-118 1353L-116 1341L-101 1325L-85 1320L-81 1316L-80 1293"/><path d="M-80 1293L-92 1271"/><path d="M-92 1271L-90 1264L-101 1245L-102 1237L-109 1230L-113 1231L-117 1236L-121 1232L-122 1223L-116 1220"/><path d="M-114 1215L-124 1192L-125 1164"/><path d="M-124 1160L-128 1151L-144 1142L-150 1130L-171 1106L-175 1095L-174 1086L-157 1068L-152 1061L-153 1056"/><path d="M-153 1056L-167 1032L-186 1021L-195 1021L-200 1016L-206 1018L-212 1015L-218 1019L-229 1057L-241 1068L-251 1073L-255 1072L-268 1053L-281 1044L-292 1024L-295 1022L-298 1015L-299 999L-293 987L-292 976L-299 965L-311 961L-316 951L-317 940L-321 934L-328 929L-332 921L-341 885L-351 871L-358 868L-366 862L-371 853L-373 829L-362 817L-360 811"/><path d="M-360 811L-358 815L-358 842L-340 842L-328 836L-324 845L-317 847L-311 853L-310 869L-304 872L-304 883L-299 887L-298 893"/><path d="M-298 893L-290 894L-287 889L-281 891L-270 880L-268 882L-263 881L-255 894L-249 895L-242 891L-240 893L-235 892L-230 896"/><path d="M-230 896L-227 888L-222 866L-220 865L-213 867L-209 872L-203 861L-195 863L-192 862L-190 859L-179 860L-177 854L-172 853L-167 858L-165 854L-171 846L-171 841"/><path d="M-171 841L-161 837L-156 843L-152 839"/><path d="M-152 839L-148 834L-145 833L-144 828L-129 831L-126 828L-120 829"/><path d="M-120 829L-112 834L-100 832"/><path d="M-100 832L-91 831L-88 822L-81 822"/><path d="M-81 822L-79 826L-69 829L-56 827"/><path d="M-56 827L-57 824L-56 821L-58 819L-55 816L-54 811"/><path d="M-54 810L-52 795"/><path d="M-52 795L-56 793L-54 788L-57 784L-54 781L-56 776L-54 774L-53 766L-57 755L-53 752L-55 746L-52 740L-59 725L-64 722L-69 702L-64 697L-64 688L-60 686"/><path d="M-60 686L-61 681L-67 679L-67 670"/><path d="M-67 669L-71 654L-68 646L-74 643L-78 630L-73 626L-71 617L-75 613L-72 608L-77 604L-78 600L-76 588"/><path d="M-76 588L-80 584L-93 584L-99 576L-104 574L-104 576L-110 570L-110 565L-116 561L-115 554L-131 549L-131 546L-133 544L-130 541L-131 537"/><path d="M-131 537L-124 535"/><path d="M-124 535L-119 532L-113 536L-107 528L-102 528L-104 521L-99 521L-96 519L-91 521L-88 515L-85 517L-79 512L-81 508L-79 501L-81 483L-78 475L-81 463"/><path d="M-81 463L-75 462L-72 465L-69 462L-63 465L-59 463L-56 459L-54 452L-59 442L-56 437L-51 436"/><path d="M-51 436L-39 437L-35 431L-27 427L-25 424L-16 423"/><path d="M-16 423L-11 423"/><path d="M-11 423L-5 420L-2 404L-7 388L-5 381L0 379L-1 369L-3 367"/><path d="M-3 367L-2 363L-4 360L0 351L-5 341L1 335L1 325L-2 318"/><path d="M-2 318L-14 315L-13 309L-15 307"/><path d="M-15 307L-20 308L-26 295L-39 288L-45 287L-46 284L-41 279L-40 272L-36 272L-31 267L-28 269L-25 275L-20 271L-15 273"/><path d="M-15 273L-9 266L-1 267L-2 258"/><path d="M-2 258L-8 259L-11 256L-11 251L-15 247L-15 239"/><path d="M-15 239L-16 236L-24 232L-25 229L-23 227L-34 217L-32 209L-33 202L-28 199L-30 197L-30 190L-39 184L-42 184L-44 181L-42 177L-30 176L-28 172L-23 170L-14 158"/><path d="M-14 158L-12 147L5 128L10 126L14 114L20 113L23 111L22 105L33 101L27 96"/><path d="M24 96L23 90L19 89L16 81"/><path d="M16 81L8 76L8 64L14 51L11 45"/><path d="M11 45L14 41"/><path d="M14 41L27 38L38 41L44 40L50 35L57 35L61 31"/><path d="M65 30L74 25L80 28"/><path d="M80 28L87 28L87 23L98 21L97 13L99 9L96 5L98 -1L96 -4L102 -5L104 -9L106 -7"/><path d="M106 -7L112 -7L117 -3L121 -6"/><path d="M121 -6L127 -6L127 -9L136 -7"/><path d="M136 -7L136 -10L144 -11L150 -20L148 -29L140 -34L142 -39L138 -47L142 -57L138 -62"/><path d="M138 -62L135 -74L140 -76L138 -83L141 -89"/><path d="M141 -89L141 -98L144 -107"/><path d="M144 -107L141 -114L142 -128"/><path d="M142 -128L146 -134L142 -136L142 -139"/><path d="M142 -139L148 -141L152 -146L157 -141L156 -137L164 -138L166 -143L178 -143L180 -139L178 -130L180 -128"/><path d="M180 -128L184 -128L192 -113"/><path d="M192 -113L201 -114L202 -119L208 -119L213 -124L218 -125L220 -121L224 -120L229 -114L242 -112L249 -104L253 -104L253 -96L257 -91"/><path d="M257 -91L260 -86L264 -86L267 -82"/><path d="M268 -81L274 -80"/><path d="M274 -80L279 -76L286 -78"/><path d="M286 -78L288 -71L294 -63L289 -54L293 -47L302 -38"/><path d="M302 -38L311 -39L316 -43L323 -42L331 -44L337 -42L340 -46L346 -47"/><path d="M346 -47L358 -55L365 -51L374 -55L377 -52L382 -53L392 -48L397 -54L405 -56L409 -60"/><path d="M409 -60L417 -57L419 -52L425 -51L429 -53L433 -50L440 -54L448 -51L459 -54L461 -51L464 -50"/><path d="M464 -50L468 -37L466 -28L468 -22L475 -21L481 -11L490 -6L492 -2L501 2L505 2L505 7L509 12L514 11L519 14L516 21L519 23L517 32L521 39L520 49L523 51L520 55L538 64L535 77L538 82L537 87L540 95L546 92L559 107L558 114L564 125L560 131L557 130L557 140L552 145L552 162"/><path d="M552 162L553 168L561 175L554 181L547 181L543 190L550 207L558 206L561 210L560 216"/><path d="M560 216L556 217L557 225L559 228L555 233L556 237L564 246L565 251L562 257L564 261L559 267L567 275L563 277L562 282L557 284"/><path d="M557 284L554 295L560 306"/><path d="M560 306L562 315L553 324L547 326L542 325L540 332L546 336L553 349L565 351L570 355L569 359L580 363L581 371L592 373L591 385L594 394L595 406L598 408L596 412L602 421L600 431"/><path d="M600 431L598 434L594 436L594 441"/><path d="M594 441L592 443L585 442L583 444L579 442L573 450"/><path d="M573 450L566 453"/><path d="M566 453L560 461L550 457L541 459L538 460L537 465L531 465L525 473L512 475L493 467L471 461"/><path d="M471 461L466 463L455 458L448 459L444 457L437 461L430 474"/><path d="M430 474L415 466L415 461L411 459L409 452L402 447L400 449L394 443L396 436L393 428L379 423L378 418L380 416L373 407L374 401L372 399L373 393L377 391L369 382L371 376L362 377L359 372L355 372L350 375L335 372L329 375L318 372L314 375L311 371L304 368L298 374"/><path d="M298 374L296 385L298 391L296 395L304 404L303 410L294 414L293 421L285 426L284 433L275 445L272 446L269 457L259 463L259 470L254 470L255 483L242 496L242 504L238 510L245 525L244 536L240 543L233 545"/><path d="M233 545L235 551L233 558L228 559L223 565L213 565L205 576L200 579"/><path d="M200 579L196 585"/><path d="M196 585L192 586L187 596"/><path d="M187 596L185 597L177 624L176 640L182 649L180 656L184 661L185 671L190 672L197 668L207 670L207 673L204 678L206 685L197 691L196 696L186 701L192 703L193 717L197 721L191 728L196 741L194 749"/><path d="M194 749L198 751L200 755L195 772L203 782L217 782L223 779L236 789L246 788L253 790L252 802L273 804L275 817L286 821L293 832L292 837L289 839L289 844L284 846L283 850L279 850L278 855L271 859L266 856L260 857L254 851L247 852"/><path d="M247 852L243 869L238 869L231 879L225 878L212 888L208 887L205 897L200 901L195 922L178 931L176 939L171 944L178 954L186 951L199 960L210 963L211 965L208 972L212 974L213 978L217 979L225 997L239 1003L243 1010"/><path d="M243 1010L250 1011L260 1018L262 1023L264 1020L266 1027L265 1029L267 1029L266 1033L270 1039"/><path d="M270 1039L272 1041L267 1049L268 1051L260 1058L251 1057L241 1060L234 1060L230 1057L219 1061L217 1071L219 1079L223 1084L220 1093L228 1106L234 1108L240 1106L243 1108"/><path d="M243 1108L240 1121L244 1124L248 1132L240 1139L241 1150L233 1152L237 1167"/><path d="M237 1167L239 1169"/><path d="M239 1169L242 1172L238 1177L240 1189L243 1191L250 1191L252 1194L253 1191L258 1193L258 1196L260 1196L259 1197L268 1204L267 1211"/><path d="M267 1211L275 1214L280 1213L285 1210L284 1207L288 1205L290 1210L287 1213L290 1214L291 1213L293 1215L297 1213L298 1219L296 1220L301 1223L303 1220L306 1220L304 1219L307 1218L305 1217L307 1217L308 1213L309 1216L319 1214L319 1217L322 1216L326 1218L327 1216L330 1216L332 1224L327 1231L327 1235L319 1244L313 1243L309 1252"/><path d="M309 1252L306 1262L298 1267L295 1272L300 1291L288 1294L286 1290L285 1294L278 1294"/><path d="M278 1294L274 1297L270 1294L269 1297L265 1296L263 1299L259 1297L257 1300L253 1297L254 1300L250 1305L244 1302L240 1305L243 1307L237 1306L237 1308L234 1311L236 1313L230 1314L232 1315L230 1316L231 1320L228 1320L228 1330L223 1333L221 1329L215 1327L216 1325L213 1327L211 1325L207 1325L209 1323L206 1321L204 1323L196 1319L190 1312L183 1311L176 1317L171 1316L163 1321"/><path d="M163 1321L158 1320L151 1327L149 1326L134 1332L134 1336L130 1338L132 1343L127 1346L125 1340L124 1343L122 1344L125 1346L125 1354L123 1358L124 1365L131 1370L136 1370L140 1380L152 1386L156 1384L158 1388"/><path d="M158 1388L161 1395L164 1394L168 1398L171 1417L180 1428L182 1433L197 1445L202 1441L215 1443L217 1448L226 1459L222 1469L217 1472L221 1480L227 1483L228 1491L231 1495L228 1500L229 1518L224 1527L225 1532L208 1552L202 1554L200 1558L197 1557L194 1561L192 1561L191 1563L192 1564L189 1563L187 1568L183 1568"/><path d="M183 1568L171 1560L162 1559L163 1554L159 1548L155 1545L151 1547L152 1543L148 1538L147 1539L149 1535L145 1529L147 1527L139 1517L139 1510L134 1511L137 1502L132 1498L131 1493L127 1493L127 1487L132 1490L133 1489L128 1481L126 1481L127 1475L124 1474L122 1469L124 1466L121 1460L114 1459L116 1455L114 1451L110 1453L109 1451L113 1449L109 1443L106 1442L105 1435L110 1432L101 1429L101 1422L98 1422L103 1410L98 1402L94 1402L92 1395L97 1390L94 1387L79 1393L55 1394L51 1397L47 1409L41 1415L46 1424L44 1432L25 1444L20 1444L18 1449L14 1448L13 1451L4 1456L-8 1456L-21 1451L-36 1458L-44 1452L-61 1459L-63 1457L-68 1457L-71 1453L-74 1454L-73 1450L-76 1451"/></g></svg>